<svg width="18" height="18" viewBox="0 0 18 18" fill="none" xmlns="http://www.w3.org/2000/svg">
<g id="right-arrow (1)" clip-path="url(#clip0_1_150)">
<path id="Vector" d="M12.121 2.8621C11.8758 2.6083 11.4676 2.6083 11.2138 2.8621C10.9686 3.10732 10.9686 3.51545 11.2138 3.7601L15.8136 8.35985L0.635059 8.35985C0.281232 8.36042 0 8.64165 0 8.99548C0 9.3493 0.281232 9.63968 0.635059 9.63968L15.8136 9.63968L11.2138 14.2309C10.9686 14.4846 10.9686 14.8933 11.2138 15.138C11.4676 15.3918 11.8763 15.3918 12.121 15.138L17.8097 9.44933C18.0635 9.20411 18.0635 8.79598 17.8097 8.55133L12.121 2.8621Z" fill="black"/>
</g>
<defs>
<clipPath id="clip0_1_150">
<rect width="18" height="18" fill="white"/>
</clipPath>
</defs>
</svg>
